<svg width="500" height="500" viewBox="0 0 500 500" fill="none" xmlns="http://www.w3.org/2000/svg">
<path opacity="0.03" d="M275.24 454.65C390.817 454.65 484.51 439.038 484.51 419.78C484.51 400.522 390.817 384.91 275.24 384.91C159.664 384.91 65.9702 400.522 65.9702 419.78C65.9702 439.038 159.664 454.65 275.24 454.65Z" fill="#000001"/>
<path d="M441.54 45.34H192.82V88.98H441.54V45.34Z" fill="#A5A5A5"/>
<path d="M442.51 377.24H193.79V420.88H442.51V377.24Z" fill="#A5A5A5"/>
<path d="M351.8 229.5C433.06 206.32 424.16 88.98 424.16 88.98H208.06C208.06 88.98 202.47 200.01 282.79 227.41C287.26 228.94 287.11 235.43 282.57 236.72C201.31 259.9 210.21 377.24 210.21 377.24H426.31C426.31 377.24 431.9 266.21 351.58 238.81C347.11 237.28 347.26 230.79 351.8 229.5Z" fill="#E6E6E6"/>
<path opacity="0.08" d="M382.71 348.15C366.88 345.6 358.33 323.08 332.28 316.96L335.28 210.81C360.58 206.49 379.67 190.71 392.38 157.23C397.11 144.78 386.96 131.6 373.75 133.33C373.57 133.35 373.39 133.38 373.2 133.41C354.85 136.13 352.81 159.91 326.31 152.44C312.6 148.57 295.79 139.25 279.85 135.85C256.56 130.89 238.38 155.48 249.93 176.31C257.84 190.58 272.08 206.33 297.09 210.2C299.1 210.51 301.07 210.77 303.03 211.01L307.99 316.15C305.38 316.49 302.66 316.96 299.8 317.57C275.6 322.78 258.17 329.5 246.32 335.32C233.67 341.53 225.73 354.45 225.73 368.54H409.21C409.21 368.54 403.77 351.55 382.71 348.15ZM328.35 211.69V316.19C326.08 315.83 323.68 315.59 321.14 315.48L318.18 212.05C321.66 212.09 325.05 211.98 328.34 211.69H328.35Z" fill="#000001"/>
<path d="M163.1 173.55C163.1 173.55 114.99 186.33 128.75 252.31C142.51 318.29 100.11 315.71 64.0205 309.97L61.7305 326.88C61.7305 326.88 156.25 356.1 168.86 273.02C181.48 189.94 163.11 173.55 163.11 173.55H163.1Z" fill="#58B566"/>
<path opacity="0.46" d="M163.1 173.55C163.1 173.55 114.99 186.33 128.75 252.31C142.51 318.29 100.11 315.71 64.0205 309.97L61.7305 326.88C61.7305 326.88 156.25 356.1 168.86 273.02C181.48 189.94 163.11 173.55 163.11 173.55H163.1Z" fill="white"/>
<path d="M15.4902 211.52V251.97H41.6302L47.3402 268.07L54.1002 251.97H80.2302V211.52H15.4902Z" fill="#E6E6E6"/>
<path d="M166.71 128.09C166.71 128.09 164.17 137.26 164.58 143.75C164.75 146.38 167.06 148.41 169.69 148.2C172.96 147.94 177.3 146.65 179.26 141.9L183.58 134.25C183.58 134.25 186.12 129.36 181.55 124.59C176.98 119.82 167.99 122.43 166.72 128.09H166.71Z" fill="#F4A28C"/>
<path d="M181.77 136.15L189.25 166.42L172.27 169.35L173.61 146.73L181.77 136.15Z" fill="#F4A28C"/>
<path d="M165.4 133.95L162.12 137.07C161.31 137.84 161.58 139.19 162.62 139.59L166.07 140.93L165.39 133.95H165.4Z" fill="#F4A28C"/>
<path opacity="0.31" d="M173.58 147.37C173.58 147.37 179.37 144.7 180.96 142.33C180.96 142.33 180.63 154.78 172.93 158.41L173.59 147.38L173.58 147.37Z" fill="#CE8172"/>
<path d="M176.17 136.72C176.17 136.72 176.91 133.13 179.56 133.91C182.21 134.69 181.18 139.88 177.41 139.68L176.17 136.71V136.72Z" fill="#F4A28C"/>
<path d="M187.17 132.13L185.19 135.56C185.19 135.56 182.79 144.36 176.94 148.91C171.08 153.46 162.84 152.52 162.14 146.33C161.33 139.23 166.09 140.93 172.45 140.64C178.82 140.34 177.84 131.81 177.84 131.81C175.04 131.85 173.11 130.35 171.82 128.66C170.03 126.3 167.74 124.39 165.01 123.24C159.37 120.86 166.25 113.47 166.25 113.47C162.48 111.38 165.37 106.99 169.02 105.64C172.67 104.29 173.71 108.58 176.49 109.4C179.26 110.22 178.14 105.8 183.52 106.89C188.9 107.98 185.98 111.95 189.21 114.85C189.21 114.85 192.93 112.02 195.79 118.47C197.43 122.15 196.58 123.88 194.94 124.84C191.8 126.66 188.98 129 187.17 132.14V132.13Z" fill="#24285B"/>
<path d="M228.1 349.49H142.88V420.87H228.1V349.49Z" fill="#A5A5A5"/>
<path d="M258.34 349.49H173.12V420.87H258.34V349.49Z" fill="#E6E6E6"/>
<path d="M171.59 406.49C171.59 406.49 169.23 413.06 163.29 413.56C157.36 414.06 155.8 419.86 161.14 421.38C166.48 422.89 180.24 416.03 180.24 416.03L179.85 407.47L171.59 406.49Z" fill="#58B566"/>
<path d="M172.27 169.35L189.25 166.42C189.25 166.42 245.72 166.51 255.61 185.84C265.49 205.18 263.42 277.17 230.76 336.26L163.88 338.2C163.88 338.2 167.59 294.8 155.13 271.16C142.67 247.53 103.93 197.31 172.29 169.35H172.27Z" fill="#58B566"/>
<path d="M230.75 336.26L198.03 331.33C177.79 328.28 160.12 345.14 162.21 365.5L166.48 407.06H182.53L181.14 368.15C180.81 358.87 189.03 351.58 198.19 353.06C212.11 355.3 229.37 354.33 230.74 336.26H230.75Z" fill="#24285B"/>
<path d="M138.29 406.49C138.29 406.49 135.93 413.06 129.99 413.56C124.06 414.06 122.5 419.86 127.84 421.38C133.18 422.89 146.94 416.03 146.94 416.03L146.55 407.47L138.29 406.49Z" fill="#58B566"/>
<path opacity="0.08" d="M222.03 184.04C222.03 184.04 198.66 199.11 204.1 228.91C209.54 258.7 233.48 313.41 184.27 303.82L187.2 326.6L220.61 323.45L247.65 305.4L254.24 255.32L222.04 184.04H222.03Z" fill="#000001"/>
<path d="M197.45 336.26L164.73 331.33C144.49 328.28 126.82 345.14 128.91 365.5L133.18 407.06H149.23L147.84 368.15C147.51 358.87 155.73 351.58 164.89 353.06C178.81 355.3 196.07 354.33 197.44 336.26H197.45Z" fill="#24285B"/>
<path d="M218.49 193.77C220.06 176.6 241.38 169.28 252.79 182.22C258.21 188.37 262.55 197.39 263.41 210.6C265.99 250.49 298.15 368.2 172.28 331.04L175.48 316.23C175.48 316.23 214 324.82 234.2 305.49C251.03 289.38 214.53 237.21 218.51 193.77H218.49Z" fill="#58B566"/>
<path opacity="0.46" d="M218.49 193.77C220.06 176.6 241.38 169.28 252.79 182.22C258.21 188.37 262.55 197.39 263.41 210.6C265.99 250.49 298.15 368.2 172.28 331.04L175.48 316.23C175.48 316.23 214 324.82 234.2 305.49C251.03 289.38 214.53 237.21 218.51 193.77H218.49Z" fill="white"/>
<path d="M137.2 333.55L116.53 276.89H177.36L189.98 330.18L205.07 332.76V340.06L137.2 333.55Z" fill="#FFD200"/>
<path d="M154.65 308.82C158.047 308.82 160.8 306.067 160.8 302.67C160.8 299.273 158.047 296.52 154.65 296.52C151.253 296.52 148.5 299.273 148.5 302.67C148.5 306.067 151.253 308.82 154.65 308.82Z" fill="white"/>
<path opacity="0.08" d="M125.49 301.45L177.43 337.41L137.2 333.55L125.49 301.45Z" fill="#000001"/>
<path d="M166.08 172.08C166.08 172.08 164.29 166.52 172.27 162.44C180.25 158.36 195.72 152.74 201.09 167.26C201.09 167.26 183.7 178.49 166.07 172.08H166.08Z" fill="#58B566"/>
<path opacity="0.46" d="M166.08 172.08C166.08 172.08 164.29 166.52 172.27 162.44C180.25 158.36 195.72 152.74 201.09 167.26C201.09 167.26 183.7 178.49 166.07 172.08H166.08Z" fill="white"/>
<path d="M64.01 309.97C64.01 309.97 52.84 300.81 48.54 306.83C44.24 312.85 61.72 323.16 61.72 323.16L64.01 309.97Z" fill="#F4A28C"/>
<path d="M68.6072 299.673L46.9697 278.036L34.2559 290.75L55.8934 312.387L68.6072 299.673Z" fill="#FFD200"/>
<path d="M181.65 133.01C181.65 133.01 186.27 130.28 187.99 133.95C189.71 137.63 184.55 140.51 181.05 138.27C181.05 138.27 182.41 135.91 181.66 133.01H181.65Z" fill="#F4A28C"/>
<path d="M32.2103 235.71C34.911 235.71 37.1003 233.521 37.1003 230.82C37.1003 228.119 34.911 225.93 32.2103 225.93C29.5096 225.93 27.3203 228.119 27.3203 230.82C27.3203 233.521 29.5096 235.71 32.2103 235.71Z" fill="#A5A5A5"/>
<path d="M47.3202 235.71C50.0208 235.71 52.2102 233.521 52.2102 230.82C52.2102 228.119 50.0208 225.93 47.3202 225.93C44.6195 225.93 42.4302 228.119 42.4302 230.82C42.4302 233.521 44.6195 235.71 47.3202 235.71Z" fill="#A5A5A5"/>
<path d="M62.0404 235.71C64.7411 235.71 66.9304 233.521 66.9304 230.82C66.9304 228.119 64.7411 225.93 62.0404 225.93C59.3397 225.93 57.1504 228.119 57.1504 230.82C57.1504 233.521 59.3397 235.71 62.0404 235.71Z" fill="#A5A5A5"/>
</svg>
