<svg width="19" height="20" viewBox="0 0 19 20" fill="none" xmlns="http://www.w3.org/2000/svg">
<path d="M16 0C17.6569 0 19 1.34315 19 3V17C19 18.6569 17.6569 20 16 20H3L2.8457 19.9961C1.31166 19.9184 0.0816253 18.6883 0.00390625 17.1543L0 17V3C0 1.39489 1.26055 0.0842143 2.8457 0.00390625L3 0H16ZM2 17C2 17.5523 2.44772 18 3 18H8.5V11.25H2V17ZM10.5 18H16C16.5523 18 17 17.5523 17 17V3C17 2.44772 16.5523 2 16 2H10.5V18ZM7 15.25H3.5V13.75H7V15.25ZM15.5 11.75H12V10.25H15.5V11.75ZM3 2C2.44772 2 2 2.44772 2 3V9.25H8.5V2H3ZM15.5 8.75H12V7.25H15.5V8.75ZM5.75 5H7V6.5H5.75V7.5H4.25V6.5H3V5H4.25V4H5.75V5Z" fill="white"/>
</svg>
