<svg width="25" height="24" viewBox="0 0 25 24" fill="none" xmlns="http://www.w3.org/2000/svg">
<path d="M22 19C22 19.5304 21.7893 20.0391 21.4142 20.4142C21.0391 20.7893 20.5304 21 20 21H4C3.46957 21 2.96086 20.7893 2.58579 20.4142C2.21071 20.0391 2 19.5304 2 19V5C2 4.46957 2.21071 3.96086 2.58579 3.58579C2.96086 3.21071 3.46957 3 4 3H9L11 6H20C20.5304 6 21.0391 6.21071 21.4142 6.58579C21.7893 6.96086 22 7.46957 22 8V19Z" stroke="white" stroke-width="2" stroke-linecap="round" stroke-linejoin="round"/>
<path d="M6.06641 12.75H22.3535C23.1829 12.7503 23.7822 13.5439 23.5557 14.3418L22.1357 19.3418C21.983 19.8791 21.4922 20.2499 20.9336 20.25H4.64648C3.81711 20.2497 3.21777 19.4561 3.44434 18.6582L4.86426 13.6582C5.01699 13.1209 5.50779 12.7501 6.06641 12.75Z" stroke="white" stroke-width="1.5"/>
</svg>
