<svg width="3811" height="4437" viewBox="0 0 3811 4437" fill="none" xmlns="http://www.w3.org/2000/svg">
<path d="M508.328 3456C508.328 2934.69 508.385 2415.39 508.23 1896.08C508.216 1850.19 515.951 1805.96 533.431 1763.61C551.193 1720.57 576.624 1682.43 611.101 1651.05C654.936 1611.14 699.494 1572.03 743.968 1532.83C981.363 1323.6 1218.82 1114.45 1456.27 905.275C1533.76 837.017 1611.31 768.839 1688.75 700.523C1725.19 668.376 1766.19 644.237 1812.54 629.516C1839.94 620.815 1867.99 616.04 1896.82 614.501C1951.8 611.566 2004.05 621.924 2053.99 644.456C2085.17 658.521 2113.15 677.678 2138.79 700.253C2250.77 798.878 2362.72 897.547 2474.7 996.19C2603.16 1109.37 2731.65 1222.52 2860.11 1335.7C2973.08 1435.23 3086.03 1534.77 3198.95 1634.36C3224.52 1656.91 3247.65 1681.6 3266.28 1710.4C3292 1750.15 3308.23 1793.36 3315.53 1840.03C3318.53 1859.16 3319.72 1878.39 3319.71 1897.75C3319.66 2429.05 3319.63 2960.36 3319.74 3491.67C3319.75 3547.98 3307.93 3601.4 3281.94 3651.33C3254.31 3704.43 3215.09 3747.29 3164.57 3779.58C3132.34 3800.18 3097.53 3814.87 3060.26 3823.51C3034.86 3829.4 3009.07 3832.27 2982.99 3832.29C2978.32 3832.29 2973.65 3832.29 2968.99 3832.29C2264.36 3832.29 1559.73 3832.28 855.099 3832.34C821.65 3832.34 788.759 3829.22 756.287 3820.48C694.848 3803.94 642.259 3772.67 599.113 3726.26C538.93 3661.53 508.718 3584.53 508.336 3496C508.281 3483.33 508.328 3470.67 508.328 3456ZM2236.06 1233.93C2133.12 1143.2 2030.17 1052.46 1927.22 961.748C1923.72 958.67 1920.11 955.729 1916.51 952.775C1916.02 952.374 1915.3 952.162 1914.65 952.065C1914.05 951.974 1913.41 952.151 1911.37 952.345C1555.96 1265.48 1199.7 1579.37 843.885 1892.86C843.885 2426.64 843.885 2959.19 843.904 3491.74C843.904 3492.35 844.072 3493.04 844.384 3493.56C844.715 3494.11 845.313 3494.51 846.253 3495.4C847.628 3495.63 849.517 3496.21 851.407 3496.21C1560.59 3496.14 2269.77 3496.03 2978.96 3495.91C2979.61 3495.91 2980.33 3495.82 2980.88 3495.52C2981.43 3495.2 2981.8 3494.57 2982.95 3493.3C2982.95 2960.41 2982.95 2426.74 2982.95 1892.09C2734.9 1673.49 2486.55 1454.64 2236.06 1233.93Z" fill="white"/>
</svg>
