<svg width="6923" height="4957" viewBox="0 0 6923 4957" fill="none" xmlns="http://www.w3.org/2000/svg">
<path d="M4140 4092.29C3150.76 4092.29 2163.52 4092.28 1176.28 4092.35C1142.16 4092.35 1108.56 4089.46 1075.4 4080.69C1026.25 4067.68 982.535 4044.56 944.028 4011.7C885.767 3961.99 849.441 3898.97 833.197 3824.4C827.8 3799.63 826.724 3774.29 826.734 3748.9C826.822 3518.93 826.785 3288.95 826.785 3058.97C826.785 2759 826.805 2459.03 826.758 2159.06C826.753 2124.94 830.129 2091.38 839.691 2058.44C851.727 2016.96 870.974 1979.39 897.718 1945.56C915.99 1922.44 937.557 1902.61 959.57 1883.22C1134.04 1729.56 1308.55 1575.94 1482.99 1422.25C1655.43 1270.31 1827.85 1118.35 2000.17 966.278C2032.37 937.86 2067.19 913.792 2107.34 897.93C2141.67 884.37 2177.12 876.595 2214.08 874.534C2279.01 870.914 2339.5 885.545 2396.19 916.749C2418.44 928.997 2438.7 944.146 2457.75 960.936C2560.7 1051.67 2663.68 1142.37 2766.66 1233.07C2777.11 1242.28 2787.66 1251.38 2798.81 1261.09C2802.92 1257.92 2806.68 1255.35 2810.08 1252.36C2919.1 1156.42 3028.21 1060.6 3136.99 964.393C3175.44 930.396 3218.15 904.16 3267.26 888.888C3293.41 880.754 3320.2 876.103 3347.65 874.561C3402.53 871.48 3454.84 881.19 3504.93 903.673C3537.43 918.257 3566.42 938.071 3593.06 961.526C3659.06 1019.63 3725.07 1077.71 3791.05 1135.84C3868.52 1204.1 3945.95 1272.4 4023.43 1340.65C4027.88 1344.58 4032.61 1348.2 4037.68 1352.34C4060.25 1332.56 4082.32 1313.33 4104.27 1293.97C4229.71 1183.42 4355.15 1072.87 4480.51 962.234C4517.95 929.201 4559.88 904.027 4607.64 889.1C4633.77 880.932 4660.54 876.154 4687.99 874.577C4742.85 871.424 4795.19 881.007 4845.34 903.385C4878.5 918.183 4907.95 938.441 4935.1 962.379C5018.04 1035.52 5101.1 1108.53 5184.08 1181.62C5324.05 1304.92 5464 1428.23 5603.94 1551.55C5734.39 1666.5 5864.79 1781.5 5995.26 1896.43C6040.07 1935.9 6074.33 1982.67 6094.31 2039.29C6107.06 2075.39 6113.21 2112.66 6113.21 2150.94C6113.21 2154.27 6113.21 2157.61 6113.21 2160.94C6113.21 2690.22 6113.17 3219.5 6113.29 3748.79C6113.3 3791.81 6107.44 3833.59 6092.23 3874.04C6071.13 3930.17 6037.69 3977.41 5991.5 4015.49C5948.61 4050.86 5899.85 4074.22 5845.3 4085.31C5822.38 4089.96 5799.23 4092.34 5775.84 4092.29C5770.5 4092.28 5765.17 4092.29 5759.84 4092.29C5220.56 4092.29 4681.28 4092.29 4140 4092.29ZM3341.99 1231.92C3286 1281.24 3230.01 1330.55 3174.03 1379.88C3012.09 1522.59 2850.16 1665.31 2688.22 1808.01C2561.27 1919.88 2434.3 2031.74 2307.33 2143.59C2303.39 2147.06 2299.29 2150.35 2296.72 2152.49C2293.73 2281.39 2295.02 3731.85 2298.26 3755.68C2301.86 3755.87 2305.69 3756.25 2309.52 3756.25C2464.18 3756.28 2618.84 3756.29 2773.5 3756.21C2777.29 3756.21 2781.07 3755.23 2785.2 3754.66C2785.2 3745.73 2785.2 3737.75 2785.2 3729.76C2785.2 3362.44 2785.18 2995.12 2785.27 2627.81C2785.27 2611.85 2785.59 2595.83 2786.96 2579.94C2792.16 2519.54 2822.21 2474.96 2874.67 2445.37C2902.05 2429.93 2932.09 2425.15 2963.17 2425.15C3232.49 2425.2 3501.81 2425.16 3771.14 2425.25C3780.43 2425.26 3789.78 2425.87 3799.01 2426.99C3857.56 2434.11 3900.47 2464.4 3928.52 2515.85C3942.53 2541.54 3947.75 2569.42 3947.74 2598.6C3947.64 2975.25 3947.67 3351.9 3947.67 3728.55C3947.67 3733.89 3947.49 3739.23 3947.73 3744.55C3947.9 3748.28 3948.64 3751.98 3949.17 3755.99C4110.98 3755.99 4271.58 3755.99 4432.18 3755.96C4432.76 3755.95 4433.39 3755.57 4433.9 3755.22C4434.45 3754.86 4434.88 3754.32 4435.7 3753.54C4435.7 3220.06 4435.7 2686.27 4435.7 2152.32C4428.04 2145.39 4420.71 2138.62 4413.23 2132.04C4294.74 2027.7 4176.17 1923.44 4057.72 1819.06C3830.79 1619.11 3603.92 1419.08 3376.99 1219.13C3373.67 1216.21 3369.86 1213.86 3365.98 1211.02C3358.18 1217.85 3351.18 1223.97 3341.99 1231.92ZM4772.34 2542C4772.42 2945.31 4772.49 3348.62 4772.6 3751.93C4772.6 3752.5 4773.03 3753.12 4773.38 3753.64C4773.75 3754.18 4774.26 3754.63 4775.7 3756.22C5106.6 3756.22 5438.49 3756.22 5770.38 3756.16C5772.23 3756.16 5774.08 3755.26 5775.49 3754.89C5776.16 3753.88 5776.78 3753.38 5776.79 3752.86C5776.98 3746.2 5777.19 3739.54 5777.18 3732.88C5777.05 3206.91 5776.91 2680.95 5776.74 2154.99C5776.74 2154.34 5776.56 2153.66 5776.32 2153.05C5776.08 2152.44 5775.68 2151.89 5774.46 2149.77C5420.79 1838.28 5065.85 1525.68 4710.9 1213.1C4710.42 1212.68 4709.75 1212.42 4709.12 1212.26C4708.49 1212.1 4707.8 1212.17 4706.19 1212.09C4700.66 1216.75 4694.5 1221.74 4688.56 1226.98C4619.59 1287.78 4550.67 1348.63 4481.71 1409.44C4423.25 1460.99 4364.76 1512.51 4306.29 1564.05C4301.5 1568.28 4295.88 1571.81 4293.19 1578.01C4295.72 1580.35 4297.64 1582.2 4299.63 1583.96C4403.1 1675.13 4506.65 1766.2 4609.99 1857.51C4633.94 1878.68 4657.99 1899.84 4680.59 1922.41C4719.07 1960.82 4744.61 2007.17 4759.56 2059.33C4768.8 2091.55 4772.46 2124.5 4772.41 2158.02C4772.23 2284.68 4772.34 2411.34 4772.34 2542ZM1162.8 3634C1162.89 3673.33 1162.98 3712.66 1163.09 3751.98C1163.1 3752.61 1163.19 3753.34 1163.52 3753.83C1163.86 3754.36 1164.54 3754.67 1165.68 3755.54C1166.92 3755.71 1168.83 3756.23 1170.74 3756.23C1432.72 3756.21 1694.69 3756.15 1956.67 3756.06C1957.27 3756.06 1957.9 3755.72 1958.45 3755.41C1959.03 3755.09 1959.53 3754.62 1961.2 3753.35C1961.2 3746.36 1961.2 3738.47 1961.2 3730.58C1961.2 3209.96 1961.18 2689.33 1961.27 2168.71C1961.27 2152.09 1961.54 2135.39 1963.05 2118.86C1967.94 2065.57 1984.86 2016.34 2013.88 1971.22C2033.54 1940.65 2058.37 1914.86 2085.47 1890.99C2220.96 1771.68 2356.4 1652.31 2491.85 1532.96C2509.33 1517.56 2526.75 1502.1 2544.36 1486.53C2541.96 1483.89 2540.34 1481.73 2538.36 1479.98C2437.38 1391.04 2336.37 1302.13 2235.35 1213.23C2234.86 1212.8 2234.25 1212.4 2233.64 1212.23C2233.03 1212.06 2232.33 1212.19 2229.8 1212.19C1875.07 1524.73 1519.29 1838.2 1162.8 2152.3C1162.8 2644.87 1162.8 3137.44 1162.8 3634ZM3238 3756.29C3355.26 3756.29 3472.53 3756.33 3589.79 3756.18C3596.8 3756.17 3604.28 3758.14 3611.67 3753.8C3611.67 3747.6 3611.67 3741.68 3611.67 3735.76C3611.54 3412.63 3611.41 3089.5 3611.26 2766.37C3611.26 2765.72 3611.11 2765 3610.8 2764.44C3610.51 2763.9 3609.92 2763.51 3609.3 2762.91C3608.95 2762.63 3608.45 2761.88 3607.91 2761.85C3601.93 2761.57 3595.95 2761.22 3589.96 2761.22C3435.4 2761.34 3280.84 2761.51 3126.28 2761.68C3125.65 2761.68 3124.96 2761.92 3124.42 2762.25C3123.87 2762.58 3123.46 2763.16 3121.64 2764.98C3121.51 2771.41 3121.22 2779.27 3121.22 2787.13C3121.19 3101.61 3121.2 3416.09 3121.2 3730.57C3121.2 3735.23 3120.97 3739.91 3121.27 3744.56C3121.52 3748.27 3122.41 3751.94 3123.13 3756.29C3160.77 3756.29 3197.38 3756.29 3238 3756.29Z" fill="white"/>
</svg>
